<svg width="24" height="24" viewBox="0 0 24 24" fill="none" xmlns="http://www.w3.org/2000/svg">
<path d="M8.8901 15.4027C8.3419 15.4697 7.95185 15.9685 8.01889 16.5167C8.08593 17.0649 8.58469 17.4549 9.13289 17.3879C9.68109 17.3208 10.0711 16.8221 10.0041 16.2739C9.93706 15.7257 9.4383 15.3356 8.8901 15.4027Z" fill="#FFE768"/>
<path d="M5.54813 12.789C5.48108 12.2408 5.87114 11.7421 6.41934 11.675C6.96754 11.608 7.46629 11.9981 7.53334 12.5463C7.60038 13.0945 7.21032 13.5932 6.66212 13.6603C6.11392 13.7273 5.61517 13.3372 5.54813 12.789Z" fill="#FFE768"/>
<path d="M7.91897 7.46185C7.37077 7.52889 6.98072 8.02765 7.04776 8.57585C7.1148 9.12405 7.61356 9.5141 8.16176 9.44706C8.70996 9.38002 9.10001 8.88126 9.03297 8.33306C8.96593 7.78486 8.46717 7.39481 7.91897 7.46185Z" fill="#FFE768"/>
<path d="M15.6973 9.28108C15.6303 8.73288 16.0203 8.23412 16.5685 8.16708C17.1167 8.10004 17.6155 8.49009 17.6825 9.03829C17.7496 9.5865 17.3595 10.0852 16.8113 10.1523C16.2631 10.2193 15.7644 9.82928 15.6973 9.28108Z" fill="#FFE768"/>
<path d="M11.9926 10.8786C11.4444 10.9456 11.0544 11.4444 11.1214 11.9926C11.1885 12.5408 11.6872 12.9309 12.2354 12.8638C12.7836 12.7968 13.1737 12.298 13.1066 11.7498C13.0396 11.2016 12.5408 10.8116 11.9926 10.8786Z" fill="#FFE768"/>
<path d="M11.3931 7.03697C11.3261 6.48877 11.7161 5.99001 12.2643 5.92297C12.8125 5.85593 13.3113 6.24598 13.3783 6.79418C13.4453 7.34239 13.0553 7.84114 12.5071 7.90818C11.9589 7.97522 11.4601 7.58517 11.3931 7.03697Z" fill="#FFE768"/>
<path fill-rule="evenodd" clip-rule="evenodd" d="M2.25292 11.7637C2.38342 6.38049 6.85315 2.12233 12.2363 2.25283C17.6195 2.38333 21.8777 6.85305 21.7472 12.2362C21.7389 12.5772 21.6243 12.8886 21.4132 13.1451C21.2113 13.3904 20.9499 13.5512 20.6919 13.6589C20.1899 13.8684 19.5606 13.9342 18.9379 13.9384C16.2493 13.9566 13.9139 16.2692 13.7613 18.9967C13.7257 19.633 13.6172 20.2803 13.3433 20.7889C13.2015 21.0522 13.0023 21.3027 12.7234 21.4841C12.4378 21.6698 12.1102 21.7555 11.7638 21.7471C6.38058 21.6166 2.12243 17.1469 2.25292 11.7637ZM12.2 3.75239C7.64498 3.64197 3.8629 7.24502 3.75248 11.8C3.64206 16.355 7.24511 20.1371 11.8001 20.2475C11.8682 20.2492 11.8934 20.2345 11.9058 20.2265C11.9248 20.2141 11.9688 20.1776 12.0226 20.0777C12.14 19.8598 12.2321 19.4757 12.2636 18.9129C12.4581 15.438 15.4045 12.4623 18.9278 12.4384C19.4899 12.4346 19.8843 12.3706 20.114 12.2747C20.1952 12.2408 20.2331 12.2121 20.2477 12.1991C20.3576 7.64446 16.7547 3.8628 12.2 3.75239Z" fill="#FFE768"/>
</svg>
