<svg width="30" height="42" viewBox="0 0 30 42" fill="none" xmlns="http://www.w3.org/2000/svg">
<path fill-rule="evenodd" clip-rule="evenodd" d="M12.0133 1.01604C12.3768 0.59786 12.9411 0.414073 13.4811 0.538046C20.6988 2.19508 24.3471 10.1043 23.4891 17.1806C23.1556 19.9313 22.3316 22.0878 21.1183 23.8036C21.1109 23.8141 21.1035 23.8245 21.0961 23.835C21.3716 23.6995 21.6259 23.5534 21.8638 23.3989C23.0476 22.6306 23.9165 21.6165 25.0479 20.2962C25.1846 20.1366 25.3252 19.9725 25.4706 19.8039C25.7974 19.4249 26.2917 19.2339 26.7885 19.2946C27.2852 19.3552 27.719 19.6597 27.945 20.1062C28.94 22.0726 29.5 24.2957 29.5 26.6453C29.5 34.6534 23.0081 41.1452 15 41.1452C6.99187 41.1452 0.5 34.6534 0.5 26.6453C0.5 21.5711 3.10741 17.107 7.04863 14.5181L7.18374 14.3819C7.25315 14.312 7.32929 14.249 7.41105 14.194C9.14277 13.0288 10.3862 12.0757 11.2234 10.9548C12.0143 9.896 12.5 8.60436 12.5 6.64525C12.5 5.19469 12.2322 3.81021 11.7446 2.53614C11.5465 2.01869 11.6499 1.43422 12.0133 1.01604ZM15.3424 4.50159C15.4463 5.20155 15.5 5.91741 15.5 6.64525C15.5 9.18208 14.8446 11.1199 13.627 12.7501C12.4835 14.2811 10.9006 15.4569 9.20932 16.5998L9.06472 16.7455C8.98724 16.8235 8.90141 16.8929 8.80878 16.9522C5.61295 18.9982 3.5 22.5755 3.5 26.6453C3.5 32.9965 8.64873 38.1452 15 38.1452C21.3513 38.1452 26.5 32.9965 26.5 26.6453C26.5 25.6056 26.3624 24.5994 26.1046 23.6433C25.3442 24.4667 24.5049 25.2613 23.497 25.9154C21.6505 27.1138 19.3399 27.798 16 27.798C15.3155 27.798 14.7178 27.3346 14.5473 26.6717C14.3768 26.0087 14.6767 25.3145 15.2762 24.9842C16.6338 24.2362 17.7846 23.3219 18.6689 22.0715C19.5513 20.8236 20.2274 19.1575 20.5109 16.8195C21.1246 11.758 19.0299 6.7621 15.3424 4.50159Z" fill="#FFE768"/>
</svg>
