<svg width="24" height="24" viewBox="0 0 24 24" fill="none" xmlns="http://www.w3.org/2000/svg">
<path fill-rule="evenodd" clip-rule="evenodd" d="M3.98037 5.86663C5.29625 4.32061 7.07799 3.15995 9.12109 2.59033C8.12591 3.51356 7.34621 4.63414 6.76382 5.86663H3.98037ZM2.86508 7.46573H6.13521C5.72266 8.752 5.49269 10.1116 5.42814 11.4637H1.63402C1.7551 10.0263 2.18695 8.672 2.86508 7.46573ZM7.82426 7.46573C7.36382 8.70908 7.10008 10.0705 7.02823 11.4637H11.007V7.46573H7.82426ZM1.62871 13.0628H5.42823C5.49068 14.3733 5.70508 15.6713 6.0656 16.8892H2.73593C2.12229 15.725 1.73477 14.431 1.62871 13.0628ZM7.02933 13.0628C7.09963 14.3989 7.34338 15.703 7.74237 16.8892H11.007V13.0628H7.02933ZM3.78458 18.4883H6.64483C6.77602 18.7901 6.91742 19.0841 7.06893 19.3689C7.59618 20.36 8.25418 21.2539 9.04061 21.979C6.92836 21.372 5.10026 20.1319 3.78458 18.4883ZM8.48069 18.6178C9.14396 19.8646 9.99878 20.8499 11.007 21.4792V18.4883H8.41295C8.43528 18.5317 8.45786 18.5749 8.48069 18.6178ZM11.007 3.11726C10.001 3.83104 9.18878 4.77418 8.56585 5.86663H11.007V3.11726ZM12.6061 3.10615V5.86663H15.2201C14.5403 4.77713 13.667 3.8311 12.6061 3.10615ZM14.4032 2.46953C15.5114 3.41872 16.3948 4.58135 17.0585 5.86663H20.0196C18.6026 4.20177 16.6453 2.98378 14.4032 2.46953ZM16.0399 7.46573H12.6061V11.4637H16.9535C16.8627 10.0733 16.556 8.71209 16.0399 7.46573ZM18.5553 11.4637C18.4751 10.1051 18.2085 8.74763 17.7512 7.46573H21.1349C21.813 8.672 22.2449 10.0263 22.366 11.4637H18.5553ZM16.9628 13.0628H12.6061V16.8892H16.1583C16.621 15.6964 16.8913 14.3961 16.9628 13.0628ZM17.8555 16.8892C18.2658 15.661 18.5005 14.3634 18.5637 13.0628H22.3713C22.2652 14.431 21.8777 15.725 21.264 16.8892H17.8555ZM15.3813 18.4883H12.6061V21.4076C13.7521 20.6693 14.6799 19.6638 15.3813 18.4883ZM14.322 22.1408C15.5503 21.1513 16.5069 19.8936 17.1996 18.4883H20.2153C18.769 20.295 16.7035 21.6142 14.322 22.1408ZM0 12.296C0 5.81581 5.39322 0.600006 12 0.600006C18.6068 0.600006 24 5.81581 24 12.296C24 18.7759 18.6068 23.9921 12 23.9921C5.39322 23.9921 0 18.7763 0 12.296Z" fill="white"/>
</svg>
